# AST/ASF file generated using VICON BodyLanguage
# -----------------------------------------------
:version 1.10
:name VICON
:units
  mass 1.0
  length 0.45
  angle deg
:documentation
   .ast/.asf automatically generated from VICON data using
   VICON BodyBuilder and BodyLanguage model FoxedUp or BRILLIANT.MOD
:root
   order TX TY TZ RX RY RZ
   axis XYZ
   position 0 0 0  
   orientation 0 0 0 
:bonedata
  begin
     id 1 
     name lhipjoint
     direction 0.671379 -0.66392 0.329334 
     length 2.38647 
     axis 0 0 0  XYZ
  end
  begin
     id 2 
     name lfemur
     direction 0.34202 -0.939693 0  
     length 6.48179  
     axis 0 0 20  XYZ
    dof rx ry rz
    limits (-160.0 20.0)
           (-70.0 70.0)
           (-60.0 70.0)
  end
  begin
     id 3 
     name ltibia
     direction 0.34202 -0.939693 0   
     length 6.86524   
     axis 0 0 20   XYZ
    dof rx
    limits (-10.0 170.0)
  end
  begin
     id 4 
     name lfoot
     direction 0.204886 -0.562919 0.800715   
     length 1.73031   
     axis -90 7.62852e-016 20   XYZ
    dof rx rz
    limits (-45.0 90.0)
           (-70.0 20.0)
  end
  begin
     id 5 
     name ltoes
     direction 1.53548e-011 -4.21841e-011 1   
     length 0.828161   
     axis -90 7.62852e-016 20   XYZ
    dof rx
    limits (-90.0 20.0)
  end
  begin
     id 6 
     name rhipjoint
     direction -0.662732 -0.670855 0.332775   
     length 2.3618  
     axis 0 0 0  XYZ 
  end
  begin
     id 7 
     name rfemur
     direction -0.34202 -0.939693 0   
     length 6.3025   
     axis 0 0 -20   XYZ
    dof rx ry rz
    limits (-160.0 20.0)
           (-70.0 70.0)
           (-70.0 60.0)
  end
  begin
     id 8 
     name rtibia
     direction -0.34202 -0.939693 0   
     length 6.8732   
     axis 0 0 -20   XYZ
    dof rx
    limits (-10.0 170.0)
 end
 begin
     id 9 
     name rfoot
     direction -0.173856 -0.477665 0.861168   
     length 1.54784  
     axis -90 -7.62852e-016 -20   XYZ
    dof rx rz
    limits (-45.0 90.0)
           (-20.0 70.0)
  end
  begin
     id 10 
     name rtoes
     direction -1.53562e-011 -4.21802e-011 1   
     length 0.759618   
     axis -90 -7.62852e-016 -20   XYZ
    dof rx
    limits (-90.0 20.0)
  end
  begin
     id 11 
     name lowerback
     direction -0.0278357 0.999497 -0.0151789   
     length 1.97203   
     axis 0 0 0   XYZ
    dof rx ry rz
    limits (-20.0 45.0)
           (-30.0 30.0)
           (-30.0 30.0)
  end
  begin
     id 12 
     name upperback
     direction -0.00360622 0.997542 0.0699804   
     length 1.94709   
     axis 0 0 0   XYZ
    dof rx ry rz
    limits (-20.0 45.0)
           (-30.0 30.0)
           (-30.0 30.0)
  end
  begin
     id 13 
     name thorax
     direction 0.00907706 0.997048 0.0762461   
     length 1.95722   
     axis 0 0 0   XYZ
    dof rx ry rz
    limits (-20.0 45.0)
           (-30.0 30.0)
           (-30.0 30.0)
  end
  begin
     id 14 
     name lowerneck
     direction -0.0481835 0.99872 -0.0153927   
     length 1.63078   
     axis 0 0 0   XYZ
    dof rx ry rz
    limits (-20.0 45.0)
           (-30.0 30.0)
           (-30.0 30.0)
  end
  begin
     id 15 
     name upperneck
     direction 0.0859716 0.979226 -0.183644   
     length 1.62591   
     axis 0 0 0   XYZ
    dof rx ry rz
    limits (-20.0 45.0)
           (-30.0 30.0)
           (-30.0 30.0)
  end
  begin
     id 16
     name head
     direction 0.0324821 0.997629 -0.0606773  
     length 1.64811  
     axis 0 0 0   XYZ
    dof rx ry rz
    limits (-20.0 45.0)
           (-30.0 30.0)
           (-30.0 30.0)
  end
  begin
     id 17 
     name lclavicle
     direction 0.939609 0.311019 0.142835  
     length 3.70647  
     axis 0 0 0   XYZ
    dof ry rz
    limits (-20.0 10.0)
           (0.0 20.0)
  end
  begin
     id 18 
     name lhumerus
     direction 1 -4.48963e-011 -1.59838e-027   
     length 4.59207   
     axis 180 -30 -90   XYZ
    dof rx ry rz
    limits (-60.0 90.0)
           (-90.0 90.0)
           (-90.0 90.0)
  end
  begin
     id 19
     name lradius
     direction 1 -4.48957e-011 -1.3483e-026   
     length 2.98109   
     axis 180 -30 -90   XYZ
    dof rx
    limits (-10.0 170.0)
  end
  begin
     id 20
     name lwrist
     direction 1 -4.48954e-011 -3.11579e-026   
     length 1.49055   
     axis 2.00652e-014 90 90   XYZ
    dof ry
    limits (-180.0 0.0)
 end
  begin
     id 21 
     name lhand
     direction 1 -4.4911e-011 -6.23158e-026   
     length 0.480203   
     axis 3.97628e-014 90 90   XYZ
    dof rx rz
    limits (-90.0 90.0)
           (-45.0 45.0)
  end
  begin
     id 22 
     name lfingers
     direction 1 -4.48893e-011 -1.24632e-025   
     length 0.387152   
     axis 7.95256e-014 90 90   XYZ
    dof rx
    limits (0.0 90.0)
  end
  begin
     id 23
     name lthumb
     direction 0.707107 -6.35013e-011 0.707107   
     length 0.555875   
     axis -90 45 2.85299e-015   XYZ
    dof rx rz
    limits (-45.0 45.0)
           (-45.0 45.0)
  end
  begin
     id 24 
     name rclavicle
     direction -0.950396 0.30392 0.0661859   
     length 3.70894  
     axis 0 0 0   XYZ 
    dof ry rz
    limits (-10.0 20.0)
           (-20.0 0.0)
  end
  begin
     id 25 
     name rhumerus
     direction -1 -4.48957e-011 -2.96677e-027  
     length 4.76508   
     axis 180 30 90   XYZ
    dof rx ry rz
    limits (-90.0 60.0)
           (-90.0 90.0)
           (-90.0 90.0)
  end
  begin
     id 26 
     name rradius
     direction -1 -4.48974e-011 -1.44501e-026   
     length 2.78902   
     axis 180 30 90   XYZ
    dof rx
    limits (-10.0 170.0)
  end
  begin
     id 27 
     name rwrist
     direction -1 -4.48978e-011 -3.11579e-026   
     length 1.39451   
     axis 2.00652e-014 -90 -90   XYZ
    dof ry
    limits (-180.0 0.0)
  end
  begin
     id 28
     name rhand
     direction -1 -4.48956e-011 -6.23158e-026   
     length 0.721303   
     axis 3.97628e-014 -90 -90   XYZ
    dof rx rz
    limits (-90.0 90.0)
           (-45.0 45.0)
  end
  begin
     id 29
     name rfingers
     direction -1 -4.4899e-011 -1.24632e-025   
     length 0.581533   
     axis 7.95256e-014 -90 -90   XYZ
    dof rx
    limits (0.0 90.0)
  end
  begin
     id 30
     name rthumb
     direction -0.707107 -6.34911e-011 0.707107   
     length 0.834968   
     axis -90 -45 -2.85299e-015   XYZ
    dof rx rz
    limits (-45.0 45.0)
           (-45.0 45.0)
  end
:hierarchy
  begin
    root lhipjoint rhipjoint lowerback
    lhipjoint lfemur
    lfemur ltibia
    ltibia lfoot
    lfoot ltoes
    rhipjoint rfemur
    rfemur rtibia
    rtibia rfoot
    rfoot rtoes
    lowerback upperback
    upperback thorax
    thorax lowerneck lclavicle rclavicle
    lowerneck upperneck
    upperneck head
    lclavicle lhumerus
    lhumerus lradius
    lradius lwrist
    lwrist lhand lthumb
    lhand lfingers
    rclavicle rhumerus
    rhumerus rradius
    rradius rwrist
    rwrist rhand rthumb
    rhand rfingers
  end

#!OML:ASF I:\salsa\salsa 7_09\Patient 1\Session 1\dancerfemale.ASF
:FULLY-SPECIFIED
:DEGREES
1
root 24.6792 15.71 0.13223 -55.6346 -85.8243 60.0849
lowerback 0.176164 1.82576 -8.72357
upperback -5.78238 2.06555 0.888776
thorax -6.55588 1.47294 5.70855
lowerneck -1.75966 -4.68656 -10.283
upperneck 7.01393 -6.68695 10.3617
head 3.05432 -3.30664 4.58393
rclavicle -2.40529e-014 -1.51076e-014
rhumerus -41.546 -16.1098 -80.2212
rradius 33.3448
rwrist 9.50511
rhand 4.00698 25.7463
rfingers 7.12502
rthumb 29.4224 -1.94407
lclavicle -2.40529e-014 -1.51076e-014
lhumerus -55.1352 32.2764 65.5371
lradius 37.267
lwrist -43.5506
lhand -12.7047 35.9742
lfingers 7.12502
lthumb 13.3779 65.5247
rfemur -17.492 3.5097 16.2933
rtibia 35.3746
rfoot -28.0836 -10.043
rtoes -12.4176
lfemur -15.7429 3.71561 -29.3848
ltibia 35.8166
lfoot -28.1257 6.63979
ltoes -14.7232
2
root 24.6688 15.7172 0.133588 -26.8113 -86.5735 31.6619
lowerback -0.385153 1.56422 -6.88919
upperback -5.84719 1.8422 1.37372
thorax -6.18468 1.26724 5.21629
lowerneck -1.64183 -4.68558 -10.3968
upperneck 6.77357 -6.68048 10.4687
head 2.97003 -3.30616 4.64013
rclavicle -3.56322e-014 1.19271e-015
rhumerus -41.6768 -17.1911 -79.3588
rradius 32.6565
rwrist 9.40936
rhand 6.13365 28.2877
rfingers 7.12502
rthumb 31.4507 0.973145
lclavicle -3.56322e-014 1.19271e-015
lhumerus -51.6209 26.4927 74.2861
lradius 35.4385
lwrist -19.8526
lhand -12.0671 36.6499
lfingers 7.12502
lthumb 13.9923 66.159
rfemur -17.2366 3.31926 18.3674
rtibia 34.2012
rfoot -27.535 -10.6199
rtoes -11.6962
lfemur -16.9222 3.71158 -27.3297
ltibia 37.155
lfoot -28.5687 5.77083
ltoes -14.4354
3
root 24.6694 15.7175 0.13352 -11.2178 -86.3532 16.2409
lowerback -0.526939 1.41103 -6.1639
upperback -5.89253 1.67392 1.57768
thorax -6.09988 1.14952 5.03451
lowerneck -1.48088 -4.69415 -10.5238
upperneck 6.62479 -6.70426 10.636
head 2.91131 -3.32138 4.7164
rclavicle -2.03506e-014 6.16232e-015
rhumerus -41.9658 -18.1226 -78.4971
rradius 32.0875
rwrist 9.01051
rhand 8.47248 30.6307
rfingers 7.12502
rthumb 33.6761 3.77561
lclavicle -2.03506e-014 6.16232e-015
lhumerus -53.4776 22.1816 77.5068
lradius 40.391
lwrist -15.366
lhand -12.1286 39.4803
lfingers 7.12502
lthumb 13.9331 68.9935
rfemur -17.2686 3.17359 19.2795
rtibia 33.9346
rfoot -27.4003 -10.9239
rtoes -10.2888
lfemur -17.4365 3.70476 -26.421
ltibia 37.5782
lfoot -28.5776 5.21574
ltoes -14.4502
4
root 24.6665 15.7124 0.142221 -13.087 -86.2618 17.9966
lowerback -0.451667 1.43113 -6.28931
upperback -5.81537 1.69495 1.51267
thorax -6.06657 1.16286 5.03441
lowerneck -1.44912 -4.74701 -10.5941
upperneck 6.62056 -6.78224 10.7115
head 2.91811 -3.36077 4.74824
rclavicle 1.71452e-015 2.38542e-015
rhumerus -42.2729 -19.0046 -77.6529
rradius 31.5077
rwrist 8.45707
rhand 10.8607 32.9295
rfingers 7.12502
rthumb 35.9422 6.59882
lclavicle 1.71452e-015 2.38542e-015
lhumerus -53.2981 22.528 77.2428
lradius 39.5687
lwrist -16.1764
lhand -12.0908 39.1164
lfingers 7.12502
lthumb 13.9695 68.6271
rfemur -16.9948 3.14276 19.1043
rtibia 33.6704
rfoot -27.2772 -10.9272
rtoes -9.40634
lfemur -17.4538 3.63284 -26.5932
ltibia 37.9574
lfoot -28.8901 5.16712
ltoes -14.0927
5
root 24.6666 15.7083 0.15025 -13.4925 -86.1603 18.3287
lowerback -0.371448 1.42387 -6.311
upperback -5.75375 1.68162 1.46274
thorax -6.04366 1.15463 4.9933
lowerneck -1.46435 -4.78873 -10.5341
upperneck 6.61191 -6.83371 10.6494
head 2.91969 -3.38589 4.71617
rclavicle 2.08724e-015 -9.14409e-015
rhumerus -42.5744 -19.8197 -76.8948
rradius 30.9941
rwrist 7.82899
rhand 13.348 35.0737
rfingers 7.12502
rthumb 38.2944 9.35515
lclavicle 2.08724e-015 -9.14409e-015
lhumerus -53.0965 22.5875 77.2869
lradius 39.0505
lwrist -16.6885
lhand -12.1549 39.3606
lfingers 7.12502
lthumb 13.9077 68.8755
rfemur -16.912 3.11059 19.0263
rtibia 33.6954
rfoot -27.296 -11.0333
rtoes -9.40362
lfemur -17.4233 3.44043 -26.6755
ltibia 38.0646
lfoot -29.029 5.22321
ltoes -13.8465
6
root 24.6658 15.7056 0.158242 -14.3438 -86.018 19.1595
lowerback -0.368802 1.36654 -6.33601
upperback -5.69377 1.60394 1.38565
thorax -5.96819 1.11176 4.93056
lowerneck -1.50094 -4.76882 -10.4634
upperneck 6.57711 -6.7996 10.6106
head 2.90811 -3.36706 4.69355
rclavicle -1.01877e-015 3.77691e-015
rhumerus -42.7906 -20.4559 -76.3229
rradius 30.5243
rwrist 7.08557
rhand 17.6986 38.8978
rfingers 7.12502
rthumb 42.3854 14.4382
lclavicle -1.01877e-015 3.77691e-015
lhumerus -52.716 24.414 76.0735
lradius 37.5667
lwrist -19.2265
lhand -12.1188 39.3061
lfingers 7.12502
lthumb 13.9425 68.8186
rfemur -16.9418 2.97087 18.893
rtibia 33.8333
rfoot -27.3617 -11.0343
rtoes -9.71194
lfemur -17.3809 3.2589 -26.8137
ltibia 38.0332
lfoot -29.0261 5.30082
ltoes -14.278
7
root 24.6635 15.7018 0.16542 -14.9552 -85.8437 19.7172
lowerback -0.394196 1.30386 -6.32455
upperback -5.59693 1.52303 1.28633
thorax -5.83448 1.06236 4.82463
lowerneck -1.6428 -4.77192 -10.4817
upperneck 6.66929 -6.80315 10.6852
head 2.96243 -3.36309 4.71552
rclavicle -1.04362e-014 -2.38542e-015
rhumerus -42.8972 -21.0808 -75.8466
rradius 29.9845
rwrist 6.28288
rhand 17.3106 39.1448
rfingers 7.12502
rthumb 42.0219 14.5621
lclavicle -1.04362e-014 -2.38542e-015
lhumerus -52.4977 25.0605 75.7148
lradius 37.0922
lwrist -20.3407
lhand -11.7669 39.22
lfingers 7.12502
lthumb 14.2816 68.7088
rfemur -16.9136 2.89988 18.7788
rtibia 33.9541
rfoot -27.4822 -11.078
rtoes -9.76968
lfemur -17.2877 3.1206 -26.9373
ltibia 38.0095
lfoot -29.0267 5.31257
ltoes -14.6515
8
root 24.6621 15.6978 0.171577 -14.6339 -85.6872 19.3155
lowerback -0.361953 1.27674 -6.24088
upperback -5.52649 1.48662 1.17928
thorax -5.76518 1.03398 4.66618
lowerneck -1.6232 -4.81669 -10.4409
upperneck 6.69345 -6.87856 10.7791
head 2.97614 -3.39815 4.7345
rclavicle 1.66979e-014 2.42517e-014
rhumerus -43.1927 -21.7352 -75.3621
rradius 29.6043
rwrist 5.50338
rhand 16.9279 39.5228
rfingers 7.12502
rthumb 41.6632 14.8209
lclavicle 1.66979e-014 2.42517e-014
lhumerus -51.2684 26.5226 74.6589
lradius 34.3431
lwrist -22.3186
lhand -11.7356 38.0154
lfingers 7.12502
lthumb 14.3118 67.5022
rfemur -16.8588 2.91816 18.7594
rtibia 34.0779
rfoot -27.5821 -11.2693
rtoes -9.83566
lfemur -17.1704 3.04885 -26.969
ltibia 37.9757
lfoot -29.0276 5.2476
ltoes -14.8902
9
root 24.6624 15.6961 0.177644 -14.8901 -85.5756 19.5273
lowerback -0.320618 1.26541 -6.17424
upperback -5.48577 1.46758 1.05357
thorax -5.73562 1.01622 4.49658
lowerneck -1.48675 -4.84308 -10.3321
upperneck 6.61405 -6.93229 10.8463
head 2.93412 -3.42537 4.73871
rclavicle 2.10215e-014 1.15295e-014
rhumerus -43.5772 -22.2867 -74.9618
rradius 29.3561
rwrist 4.76609
rhand 16.6212 39.8359
rfingers 7.12502
rthumb 41.3754 15.04
lclavicle 2.10215e-014 1.15295e-014
lhumerus -51.0318 26.3521 74.9331
lradius 34.4407
lwrist -22.2366
lhand -11.3912 38.2066
lfingers 7.12502
lthumb 14.6436 67.6695
rfemur -16.8651 2.91686 18.6962
rtibia 34.2036
rfoot -27.6426 -11.4242
rtoes -10.0742
lfemur -17.1029 3.05535 -27.0349
ltibia 37.9373
lfoot -28.9899 5.16203
ltoes -15.2402
10
root 24.6631 15.6952 0.182943 -16.195 -85.4994 20.8043
lowerback -0.305915 1.24861 -6.21905
upperback -5.42885 1.44187 0.957962
thorax -5.67858 1.00036 4.42269
lowerneck -1.48116 -4.84668 -10.3545
upperneck 6.66145 -6.94892 10.935
head 2.95269 -3.43233 4.76899
rclavicle -1.06598e-014 1.35174e-014
rhumerus -43.8559 -22.5983 -74.6774
rradius 29.1458
rwrist 4.0565
rhand 16.8223 39.6289
rfingers 7.12502
rthumb 41.5641 14.8945
lclavicle -1.06598e-014 1.35174e-014
lhumerus -51.7727 24.8221 76.4355
lradius 37.2535
lwrist -20.3623
lhand -10.7162 39.6164
lfingers 7.12502
lthumb 15.2939 69.0309
rfemur -16.8985 2.93599 18.5485
rtibia 34.3279
rfoot -27.7221 -11.5154
rtoes -10.198
lfemur -17.0594 3.14468 -27.173
ltibia 37.907
lfoot -28.9691 5.01017
ltoes -15.1604
11
root 24.6633 15.6939 0.186863 -17.3859 -85.4606 21.9773
lowerback -0.304956 1.23174 -6.24104
upperback -5.38096 1.41711 0.866516
thorax -5.62273 0.984069 4.34052
lowerneck -1.5334 -4.83748 -10.4701
upperneck 6.7877 -6.95058 11.0812
head 3.00772 -3.43066 4.83142
rclavicle 1.35422e-014 -3.08116e-015
rhumerus -44.1646 -22.7978 -74.4979
rradius 29.055
rwrist 3.61589
rhand 16.7508 39.6638
rfingers 7.12502
rthumb 41.497 14.9074
lclavicle 1.35422e-014 -3.08116e-015
lhumerus -51.4792 25.0533 76.6565
lradius 37.3815
lwrist -20.4191
lhand -10.3911 39.9365
lfingers 7.12502
lthumb 15.607 69.3268
rfemur -16.9359 3.01391 18.4257
rtibia 34.4403
rfoot -27.7905 -11.6339
rtoes -10.2439
lfemur -17.0394 3.35097 -27.2848
ltibia 37.8956
lfoot -28.9753 4.77814
ltoes -14.9481
12
root 24.6635 15.6923 0.190388 -17.6131 -85.445 22.1985
lowerback -0.30605 1.21534 -6.1441
upperback -5.34707 1.39565 0.775163
thorax -5.57634 0.964254 4.19131
lowerneck -1.6047 -4.83793 -10.518
upperneck 6.92416 -6.95977 11.1402
head 3.0646 -3.43265 4.85475
rclavicle 1.7903e-014 -2.78299e-015
rhumerus -44.5022 -22.9271 -74.4353
rradius 29.0923
rwrist 3.48704
rhand 16.5756 39.7607
rfingers 7.12502
rthumb 41.3326 14.9509
lclavicle 1.7903e-014 -2.78299e-015
lhumerus -50.2983 25.827 76.4668
lradius 35.7391
lwrist -21.0915
lhand -10.4631 39.3017
lfingers 7.12502
lthumb 15.5376 68.6974
rfemur -16.9742 3.06862 18.3931
rtibia 34.5189
rfoot -27.8145 -11.7438
rtoes -10.4188
lfemur -17.051 3.5628 -27.3154
ltibia 37.9156
lfoot -28.9785 4.59187
ltoes -15.0751
13
root 24.6639 15.6898 0.193199 -16.6161 -85.4118 21.1869
lowerback -0.309967 1.20962 -5.99291
upperback -5.30364 1.39265 0.720812
thorax -5.51959 0.951936 4.04975
lowerneck -1.60763 -4.85752 -10.5126
upperneck 6.97904 -6.99277 11.155
head 3.0853 -3.4485 4.85641
rclavicle 1.89715e-014 1.22253e-014
rhumerus -44.8095 -22.9882 -74.414
rradius 29.1911
rwrist 3.51374
rhand 16.2746 39.9905
rfingers 7.12502
rthumb 41.05 15.09
lclavicle 1.89715e-014 1.22253e-014
lhumerus -49.9494 25.471 77.1428
lradius 36.2505
lwrist -20.6186
lhand -10.2115 39.1098
lfingers 7.12502
lthumb 15.78 68.4866
rfemur -16.98 3.01989 18.4613
rtibia 34.5559
rfoot -27.811 -11.7925
rtoes -10.6883
lfemur -17.0707 3.7118 -27.2434
ltibia 37.9657
lfoot -28.9871 4.40238
ltoes -15.1031
14
root 24.6636 15.6876 0.194906 -15.4821 -85.3826 20.025
lowerback -0.336824 1.22792 -5.8974
upperback -5.23896 1.42426 0.696019
thorax -5.43443 0.959383 3.9695
lowerneck -1.48966 -4.87215 -10.5403
upperneck 6.85308 -7.02123 11.2617
head 3.03602 -3.4645 4.89631
rclavicle 3.94588e-014 1.12313e-014
rhumerus -45.0751 -23.0704 -74.3687
rradius 29.3316
rwrist 3.65941
rhand 15.8801 40.4826
rfingers 7.12502
rthumb 40.6794 15.4652
lclavicle 3.94588e-014 1.12313e-014
lhumerus -49.7424 25.0521 77.9505
lradius 37.1398
lwrist -20.2
lhand -9.86687 39.0389
lfingers 7.12502
lthumb 16.1118 68.3891
rfemur -16.9516 2.91878 18.5472
rtibia 34.5656
rfoot -27.798 -11.7635
rtoes -10.757
lfemur -17.0787 3.8427 -27.1487
ltibia 38.0269
lfoot -29.0147 4.21076
ltoes -15.0287
